<svg width="374" height="117" viewBox="0 0 374 117" fill="none" xmlns="http://www.w3.org/2000/svg">
<path d="M143.045 61H135.486V18.4023H143.045V34.1348C144.061 32.5332 145.389 31.2441 147.029 30.2676C148.67 29.2715 150.34 28.7734 152.039 28.7734C153.914 28.7734 155.574 29.2227 157.02 30.1211C158.465 31 159.627 32.2207 160.506 33.7832C161.385 35.3262 162.039 37.084 162.469 39.0566C162.918 41.0098 163.143 43.1289 163.143 45.4141C163.143 47.6992 162.918 49.8184 162.469 51.7715C162.02 53.7051 161.355 55.4336 160.477 56.957C159.598 58.4609 158.436 59.6523 156.99 60.5312C155.545 61.3906 153.895 61.8203 152.039 61.8203C150.359 61.8203 148.689 61.3223 147.029 60.3262C145.389 59.3105 144.061 58.002 143.045 56.4004V61ZM155.525 45.2676C155.525 43.5488 155.34 42.0449 154.969 40.7559C154.598 39.4668 154.1 38.4609 153.475 37.7383C152.85 37.0156 152.186 36.4883 151.482 36.1562C150.799 35.8047 150.076 35.6289 149.314 35.6289C148.553 35.6289 147.811 35.7949 147.088 36.127C146.365 36.4395 145.672 36.9473 145.008 37.6504C144.344 38.334 143.807 39.3398 143.396 40.668C143.006 41.9766 142.811 43.5098 142.811 45.2676C142.811 47.0449 143.006 48.5977 143.396 49.9258C143.807 51.2344 144.344 52.2402 145.008 52.9434C145.672 53.6465 146.365 54.1641 147.088 54.4961C147.811 54.8086 148.553 54.9648 149.314 54.9648C150.018 54.9648 150.721 54.7598 151.424 54.3496C152.146 53.9395 152.82 53.3535 153.445 52.5918C154.07 51.8301 154.568 50.8145 154.939 49.5449C155.33 48.2559 155.525 46.8301 155.525 45.2676ZM176.706 41.9277H188.805C188.669 40.1699 188.063 38.6758 186.989 37.4453C185.915 36.1953 184.499 35.5703 182.741 35.5703C181.003 35.5703 179.587 36.2051 178.493 37.4746C177.419 38.7246 176.823 40.209 176.706 41.9277ZM183.005 55.1113C184.938 55.1113 186.442 54.4668 187.516 53.1777L194.196 56.0488C192.985 57.8848 191.335 59.3105 189.245 60.3262C187.155 61.3418 185.075 61.8496 183.005 61.8496C181.071 61.8496 179.225 61.4297 177.468 60.5898C175.71 59.75 174.177 58.6074 172.868 57.1621C171.579 55.7168 170.554 53.959 169.792 51.8887C169.03 49.8184 168.649 47.6113 168.649 45.2676C168.649 40.5801 170.016 36.6738 172.751 33.5488C175.485 30.4043 178.815 28.832 182.741 28.832C185.319 28.832 187.624 29.5449 189.655 30.9707C191.706 32.377 193.298 34.3301 194.43 36.8301C195.563 39.3301 196.13 42.1426 196.13 45.2676V47.2598H176.677C176.696 48.5293 176.862 49.6621 177.175 50.6582C177.487 51.6348 177.868 52.3965 178.317 52.9434C178.766 53.4902 179.284 53.9395 179.87 54.291C180.456 54.623 180.993 54.8477 181.481 54.9648C181.989 55.0625 182.497 55.1113 183.005 55.1113ZM203.98 36.2734H199.849V29.5645H203.98V22.2402H211.539V29.5645H216.05V36.2734H211.539V52.2988C211.539 54.1543 212.623 55.082 214.791 55.082H215.933V61.4395H214.791C212.701 61.4395 210.953 61.2637 209.546 60.9121C208.16 60.541 207.056 59.9746 206.236 59.2129C205.416 58.4316 204.83 57.5039 204.478 56.4297C204.146 55.3359 203.98 53.998 203.98 52.416V36.2734ZM240.571 41.5469L236.411 61H230.522L221.293 29.5645H228.764L233.686 49.1641L237.495 29.4473H244.291L248.1 49.0762L253.08 29.5645H260.2L250.971 61H244.555L240.571 41.5469ZM268.109 25.2285C267.269 24.291 266.849 23.1875 266.849 21.918C266.849 20.6484 267.269 19.5547 268.109 18.6367C268.968 17.6992 269.984 17.2305 271.155 17.2305C272.327 17.2305 273.333 17.6992 274.173 18.6367C275.032 19.5547 275.462 20.6484 275.462 21.918C275.462 23.1875 275.032 24.291 274.173 25.2285C273.333 26.1465 272.327 26.6055 271.155 26.6055C269.984 26.6055 268.968 26.1465 268.109 25.2285ZM267.376 29.5645H274.935V61H267.376V29.5645ZM310.061 61H301.066L295.5 51.1855L289.934 61H280.939L290.93 45.2969L281.467 29.5645H289.963L295.529 39.2324L301.008 29.5645H310.207L300.07 45.0332L310.061 61ZM318.468 36.2734H314.337V29.5645H318.468V22.2402H326.026V29.5645H330.538V36.2734H326.026V52.2988C326.026 54.1543 327.11 55.082 329.278 55.082H330.421V61.4395H329.278C327.188 61.4395 325.44 61.2637 324.034 60.9121C322.647 60.541 321.544 59.9746 320.723 59.2129C319.903 58.4316 319.317 57.5039 318.966 56.4297C318.634 55.3359 318.468 53.998 318.468 52.416V36.2734Z" fill="#4D4D4D"/>
<path d="M145.521 95L139.236 85.7568H136.087V95H133.772V73.6719H139.104C140.687 73.6719 142.083 73.9111 143.294 74.3896C144.505 74.8682 145.447 75.5615 146.121 76.4697C146.805 77.3682 147.146 78.4326 147.146 79.6631C147.146 80.6299 146.927 81.5234 146.487 82.3438C146.048 83.1543 145.423 83.8379 144.612 84.3945C143.812 84.9414 142.879 85.3125 141.814 85.5078L148.172 95H145.521ZM136.087 83.6621H139.104C141.644 83.6621 143.318 83.0518 144.129 81.8311C144.539 81.1963 144.744 80.4736 144.744 79.6631C144.744 78.4229 144.275 77.4609 143.338 76.7773C142.41 76.084 140.999 75.7373 139.104 75.7373H136.087V83.6621ZM150.515 73.6719H164.006V75.7373H152.829V83.0322H163.376V85.0977H152.829V92.9346H164.006V95H150.515V73.6719ZM167.844 95V73.6719H170.085L180.925 90.6787V73.6719H183.224V95H181.1L170.158 77.5684V95H167.844ZM186.593 73.6719H202.589V75.7373H195.895V95H193.58V75.7373H186.593V73.6719ZM215.772 87.8955H208.492L206.119 95H203.541L211.216 73.6719H213.077L220.753 95H218.116L215.772 87.8955ZM212.139 77.2168L209.151 85.9033H215.23L212.139 77.2168ZM223.931 73.6719H226.245V92.9346H237.451V95H223.931V73.6719ZM242.109 89.7559C242.246 90.332 242.548 90.8984 243.017 91.4551C243.496 92.0117 244.086 92.4658 244.789 92.8174C245.493 93.1689 246.245 93.3447 247.045 93.3447C247.885 93.3447 248.671 93.1836 249.404 92.8613C250.146 92.5391 250.742 92.0898 251.191 91.5137C251.64 90.9375 251.865 90.2881 251.865 89.5654C251.865 87.6514 250.287 86.0645 247.133 84.8047L246.137 84.4092C245.356 84.1162 244.721 83.8477 244.233 83.6035C243.256 83.125 242.568 82.6709 242.167 82.2412C241.943 82.0166 241.684 81.6895 241.391 81.2598C240.883 80.5176 240.629 79.5508 240.629 78.3594C240.629 77.3145 240.898 76.3965 241.435 75.6055C241.982 74.8047 242.724 74.1895 243.662 73.7598C244.599 73.3203 245.644 73.1006 246.796 73.1006C247.919 73.1006 248.94 73.291 249.858 73.6719C250.776 74.043 251.547 74.5605 252.172 75.2246C252.797 75.8887 253.246 76.6504 253.52 77.5098L251.293 77.876C251.137 77.3975 250.844 76.9531 250.414 76.543C249.995 76.123 249.472 75.791 248.847 75.5469C248.222 75.293 247.553 75.166 246.84 75.166C246.108 75.166 245.449 75.3076 244.863 75.5908C244.287 75.8643 243.832 76.2451 243.5 76.7334C243.168 77.2119 243.002 77.7539 243.002 78.3594C243.002 79.1211 243.203 79.7656 243.603 80.293C244.003 80.8203 244.492 81.2207 245.068 81.4941C245.556 81.7383 245.937 81.9189 246.21 82.0361C246.484 82.1533 246.86 82.3047 247.338 82.4902C248.364 82.8809 249.15 83.2178 249.697 83.501C250.81 84.0674 251.635 84.6191 252.172 85.1562C252.534 85.5176 252.861 85.9082 253.154 86.3281C253.788 87.2168 254.106 88.3008 254.106 89.5801C254.106 90.8691 253.774 91.9629 253.11 92.8613C251.821 94.5703 249.736 95.4248 246.855 95.4248C245.048 95.4248 243.535 94.9658 242.314 94.0479C241.103 93.1201 240.204 91.8408 239.619 90.21L242.109 89.7559Z" fill="black"/>
<rect width="117" height="117" rx="12" fill="url(#paint0_linear_22_206)"/>
<rect width="117" height="117" rx="12" fill="url(#paint1_linear_22_206)"/>
<line x1="26.5" y1="51.0084" x2="26.5" y2="93.5824" stroke="white" stroke-width="7" stroke-linecap="round"/>
<line x1="26.541" y1="50.6083" x2="59.1493" y2="18" stroke="white" stroke-width="7" stroke-linecap="round"/>
<line x1="59.8188" y1="18" x2="92.427" y2="50.6083" stroke="white" stroke-width="7" stroke-linecap="round"/>
<line x1="92.5988" y1="51.0084" x2="92.5988" y2="93.5824" stroke="white" stroke-width="7" stroke-linecap="round"/>
<line x1="48.9119" y1="93.7734" x2="91.4856" y2="93.597" stroke="white" stroke-width="7" stroke-linecap="round"/>
<line x1="48.5" y1="93.6469" x2="48.5" y2="54.6138" stroke="white" stroke-width="7" stroke-linecap="round"/>
<line x1="48.9976" y1="53.8748" x2="84.1491" y2="19.1501" stroke="white" stroke-width="7" stroke-linecap="round"/>
<defs>
<linearGradient id="paint0_linear_22_206" x1="5.5" y1="24" x2="106.5" y2="102.5" gradientUnits="userSpaceOnUse">
<stop offset="0.053522" stop-color="#56A3FD"/>
<stop offset="1" stop-color="#8BC1FF"/>
</linearGradient>
<linearGradient id="paint1_linear_22_206" x1="5.5" y1="24" x2="106.5" y2="102.5" gradientUnits="userSpaceOnUse">
<stop offset="0.053522" stop-color="#C856FD"/>
<stop offset="1" stop-color="#8BC1FF"/>
</linearGradient>
</defs>
</svg>
